<svg width="436" height="22.4" viewBox="0 0 545 28" fill="none" xmlns="http://www.w3.org/2000/svg">
<path d="M540.588 26.15L538.713 24.925C540.138 22.775 540.713 21.65 541.263 19.9C541.813 18.15 542.088 16.275 542.088 14.275C542.088 12.275 541.813 10.425 541.263 8.67499C540.713 6.92499 540.138 5.8 538.713 3.64999L540.588 2.39999C542.013 4.57499 542.613 5.7 543.238 7.49999C544.013 9.67499 544.388 11.925 544.388 14.275C544.388 16.65 544.013 18.9 543.238 21.05C542.613 22.85 542.013 24 540.588 26.15Z" fill="black"/>
<path d="M516.238 4.125L518.713 4.15C518.588 4.975 518.538 5.9 518.538 7.3C518.538 9.925 518.788 13.225 519.138 14.825C519.663 17.4 520.613 19.075 521.513 19.075C521.938 19.075 522.363 18.675 522.713 17.875C523.288 16.575 523.713 15.225 524.013 13.525C524.638 14.275 524.913 14.55 525.763 15.2C524.488 19.75 523.313 21.475 521.413 21.475C519.888 21.475 518.488 19.975 517.638 17.45C516.788 14.95 516.438 11.875 516.313 5.625C516.288 4.7 516.288 4.6 516.238 4.125ZM528.888 6.325L530.713 5.425C533.838 9.15 535.413 12.825 536.213 18.1L534.063 18.95C533.663 14.25 531.838 9.775 528.888 6.325Z" fill="black"/>
<path d="M500.938 6.35001L499.763 3.55001C499.363 2.52501 499.313 2.42501 499.113 2.05001L501.463 1.72501C501.563 2.40001 501.613 2.52501 502.163 3.95001C502.638 5.20001 502.813 5.62501 503.013 6.05001C505.513 5.62501 507.738 5.05001 509.088 4.50001L509.363 6.62501C508.888 6.72501 508.638 6.77501 507.788 6.97501C506.338 7.35001 505.513 7.52501 503.738 7.87501C505.038 10.5 506.388 12.675 508.188 15.1L506.188 16.175C505.513 15.6 505.138 15.375 504.438 15.125C503.238 14.7 501.888 14.5 500.213 14.5C498.163 14.5 496.688 14.825 495.613 15.5C494.813 16 494.313 16.85 494.313 17.725C494.313 19.575 496.363 20.65 499.963 20.65C502.488 20.65 505.263 20.025 507.188 19.025L507.488 21.3C504.788 22.25 502.488 22.65 500.013 22.65C496.813 22.65 494.438 21.95 493.263 20.675C492.538 19.9 492.138 18.875 492.138 17.825C492.138 16.225 493.163 14.675 494.788 13.8C496.163 13.05 497.713 12.725 499.788 12.725C501.963 12.725 503.713 13 504.863 13.55C504.713 13.35 504.713 13.35 504.338 12.825C503.788 12.075 502.838 10.45 502.063 8.97501C501.813 8.47501 501.788 8.42501 501.638 8.15001C499.338 8.50001 495.988 8.75001 492.763 8.80001C492.238 8.80001 492.138 8.82501 491.763 8.87501L491.613 6.72501C492.288 6.82501 492.863 6.85001 493.813 6.85001C495.738 6.85001 498.988 6.62501 500.938 6.35001Z" fill="black"/>
<path d="M465.463 8.225L465.488 6.15C466.313 6.3 467.313 6.375 468.688 6.375C469.088 6.375 469.388 6.35 470.063 6.325C470.413 4.375 470.613 2.925 470.613 2.15V1.825L472.963 2.075C472.813 2.65 472.813 2.65 472.513 4.425C472.363 5.275 472.313 5.575 472.188 6.2C474.088 6.025 475.413 5.775 476.638 5.375L476.738 7.425C476.538 7.45 476.538 7.45 476.013 7.575C474.788 7.825 473.138 8.05 471.838 8.125C471.488 10.025 470.838 12.75 470.138 15.05C469.338 17.7 468.638 19.65 467.288 22.85L465.088 21.95C466.913 18.725 468.738 13.325 469.713 8.225L467.638 8.25C467.438 8.25 466.763 8.25 466.088 8.2C465.888 8.2 465.663 8.2 465.463 8.225ZM479.363 3L480.813 2.25C481.988 3.65 482.563 4.5 483.438 6.125L481.963 6.95C481.188 5.4 480.388 4.15 479.363 3ZM484.613 9.25L484.638 11.375C483.438 11.25 482.738 11.2 481.638 11.2C479.338 11.2 477.663 11.425 475.313 12.025L475.113 10.025C478.113 9.375 479.663 9.2 481.963 9.2L484.613 9.25ZM475.313 14.625L477.038 15.4C476.313 16.275 476.163 16.475 475.988 16.85C475.788 17.25 475.663 17.775 475.663 18.2C475.663 19.575 477.163 20.325 479.863 20.325C481.713 20.325 483.988 19.975 485.413 19.45L485.613 21.675L484.463 21.85C482.613 22.15 481.313 22.275 479.963 22.275C475.788 22.275 473.588 20.95 473.588 18.425C473.588 17.25 473.988 16.375 475.313 14.625ZM482.263 1.65L483.663 0.900002C484.838 2.275 485.388 3.05 486.288 4.7L484.838 5.525C484.113 4.075 483.363 2.95 482.263 1.65Z" fill="black"/>
<path d="M453.488 1.675L455.563 3.25C455.213 3.5 454.913 3.775 452.488 6.075C451.263 7.25 449.638 8.575 446.663 10.85C445.813 11.5 445.613 11.725 445.613 12.025C445.613 12.45 445.763 12.6 447.838 14.2C451.588 17.05 452.163 17.525 455.813 20.925C456.188 21.275 456.238 21.325 456.538 21.575L454.663 23.425C454.063 22.55 453.113 21.525 451.438 20C449.738 18.425 448.788 17.625 445.063 14.725C443.613 13.575 443.188 13 443.188 12.05C443.188 11.425 443.463 10.8 443.938 10.3C444.238 9.975 444.238 9.975 446.088 8.575C449.588 5.875 452.563 3.1 453.488 1.675Z" fill="black"/>
<path d="M416.464 7.57501L416.339 5.22501C416.864 5.25001 417.089 5.25001 417.239 5.25001C417.589 5.25001 417.914 5.22501 418.689 5.17501C422.189 4.92501 429.039 4.55001 433.164 4.35001C434.689 4.30001 435.689 4.20001 436.089 4.10001L436.264 6.32501C436.139 6.32501 436.014 6.32501 435.964 6.32501C433.939 6.32501 431.564 7.12501 429.589 8.47501C427.064 10.2 425.639 12.475 425.639 14.825C425.639 17.025 426.889 18.55 429.389 19.375C430.639 19.775 431.939 20 433.139 20L432.789 22.425C432.489 22.35 432.389 22.35 431.989 22.275C429.414 21.85 427.939 21.375 426.464 20.425C424.539 19.2 423.489 17.275 423.489 15.025C423.489 11.4 425.964 8.12501 430.189 6.22501C428.589 6.475 427.389 6.60001 424.689 6.77501C419.839 7.10001 417.789 7.30001 416.464 7.57501Z" fill="black"/>
<path d="M398.066 3.87499L398.766 2.02499C401.516 2.92499 404.591 3.42499 408.066 3.52499L407.691 5.49999C403.216 5.14999 401.316 4.82499 398.066 3.87499ZM395.966 10.45L395.816 8.27499C396.466 8.29999 396.816 8.32499 397.341 8.32499C399.566 8.32499 404.041 8.02499 406.291 7.72499C406.891 7.62499 407.191 7.54999 407.541 7.42499L408.816 8.99999C408.316 9.37499 407.941 9.72499 406.616 11.025C404.716 12.9 402.941 14.5 401.841 15.325C402.966 14.825 403.466 14.675 404.091 14.675C404.816 14.675 405.441 14.95 405.891 15.45C406.341 15.95 406.466 16.45 406.591 17.875C406.691 19.25 406.791 19.725 407.066 20.1C407.391 20.525 407.941 20.7 408.966 20.7C410.766 20.7 412.691 20.35 414.016 19.775L414.316 22.025C413.991 22.05 413.991 22.05 412.241 22.325C410.791 22.575 409.891 22.65 408.791 22.65C406.841 22.65 405.716 22.2 405.166 21.2C404.841 20.625 404.741 20.15 404.616 18.475C404.541 17.4 404.491 17.075 404.341 16.775C404.166 16.425 403.741 16.2 403.241 16.2C401.966 16.2 400.766 16.9 398.716 18.825C397.466 20 395.916 21.6 395.016 22.625L393.366 20.775C394.266 20.15 394.641 19.85 396.041 18.55C398.366 16.375 400.066 14.75 401.766 13.075C402.066 12.775 403.316 11.575 405.541 9.44999C403.741 9.79999 403.466 9.82499 397.666 10.275C396.891 10.325 396.641 10.35 395.966 10.45Z" fill="black"/>
<path d="M375.716 5.25H370.416C369.141 5.25 368.466 5.275 367.716 5.375V3.425C368.366 3.525 369.191 3.575 370.516 3.575H377.491V2.9C377.491 2.2 377.441 1.725 377.366 1.2H379.591C379.516 1.725 379.466 2.2 379.466 2.9V3.575H386.466C387.816 3.575 388.566 3.525 389.341 3.425V5.375C388.541 5.3 387.591 5.25 386.516 5.25H382.241V10.775C382.241 12.05 381.766 12.45 380.316 12.45C379.741 12.45 378.991 12.425 378.266 12.375C378.191 11.7 378.041 11.225 377.716 10.625C378.566 10.75 379.141 10.8 379.741 10.8C380.291 10.8 380.391 10.7 380.391 10.275V5.25H377.566C377.441 9.475 376.391 11.4 373.141 13.35C372.716 12.85 372.316 12.5 371.566 12.075C373.391 11.175 374.441 10.3 375.016 9.125C375.491 8.15 375.666 7.225 375.716 5.25ZM384.166 14.4L385.341 15.625C385.066 15.875 385.016 15.95 384.616 16.375C383.216 17.8 381.966 18.85 380.466 19.9C383.266 21.125 385.941 21.7 390.066 21.95C389.566 22.675 389.266 23.25 389.041 23.95C384.541 23.275 381.416 22.375 378.741 20.925C377.216 21.7 375.366 22.375 373.466 22.875C371.916 23.275 370.666 23.475 367.991 23.825C367.716 23.05 367.491 22.6 366.991 21.975C369.691 21.8 370.566 21.7 372.191 21.375C374.016 20.975 375.466 20.525 376.991 19.85C375.591 18.875 374.716 18.125 373.641 17C372.216 18.05 371.116 18.675 369.466 19.4C369.066 18.725 368.866 18.45 368.341 17.9C370.541 17.1 372.266 16.075 373.916 14.6C375.016 13.625 375.641 12.9 376.116 12.05L377.891 12.825C377.716 13.025 377.691 13.05 377.491 13.275C377.141 13.7 376.866 14.025 376.416 14.525H381.866C382.941 14.525 383.691 14.475 384.166 14.4ZM382.316 16.075H375.016C375.966 17.125 377.216 18.125 378.691 19C380.066 18.175 380.841 17.575 382.316 16.075ZM371.941 6.05L373.641 6.825C372.916 8.3 372.441 9.025 371.516 10.125C370.766 11.025 370.266 11.5 369.116 12.425C368.441 11.775 368.291 11.65 367.566 11.175C368.691 10.375 369.241 9.95 369.916 9.225C370.841 8.225 371.341 7.45 371.941 6.05ZM383.191 7.275L384.616 6.275C386.516 8.025 387.591 9.175 389.241 11.225L387.591 12.5C386.016 10.175 385.041 9 383.191 7.275Z" fill="black"/>
<path d="M346.441 18.725H346.466C346.716 17.325 347.116 16.125 347.916 14.15L349.416 14.85C348.166 17.5 347.316 20.375 347.316 21.9C347.316 22 347.316 22.175 347.341 22.375L345.166 22.525C345.116 22.125 345.091 21.975 345.016 21.475C344.541 18.725 344.366 16.875 344.366 14.35C344.366 10.85 344.666 8.15 345.466 4.45C345.716 3.2 345.766 2.95 345.816 2.325L348.191 2.65C347.741 3.825 347.291 5.675 346.941 7.625C346.566 9.825 346.366 12.425 346.366 15.275C346.366 15.775 346.391 16.975 346.416 17.65C346.416 18.2 346.441 18.3 346.441 18.725ZM351.166 7.3L351.216 5.2C352.366 5.475 353.516 5.575 355.441 5.575C358.366 5.575 360.766 5.325 362.291 4.9L362.416 7.025C362.341 7.025 361.766 7.1 360.691 7.25C359.166 7.45 357.216 7.575 355.366 7.575C354.091 7.575 353.291 7.525 352.016 7.4C351.941 7.4 351.941 7.4 351.566 7.35C351.416 7.325 351.366 7.325 351.166 7.3ZM352.966 11.975L354.666 12.825C353.366 14.25 352.791 15.4 352.791 16.5C352.791 18.2 354.341 19.05 357.366 19.05C359.616 19.05 361.766 18.725 363.191 18.175L363.416 20.45C363.091 20.5 363.041 20.5 362.516 20.6C360.716 20.925 359.041 21.075 357.366 21.075C354.416 21.075 352.541 20.45 351.491 19.1C351.016 18.475 350.741 17.6 350.741 16.7C350.741 15.225 351.416 13.775 352.966 11.975Z" fill="black"/>
<path d="M333.54 6.52501H335.365C335.14 7.12501 334.965 7.70001 334.665 8.85001L332.89 15.575C332.84 15.775 332.815 16 332.815 16.2C332.815 16.65 333.065 16.875 333.565 16.875C334.115 16.875 334.94 16.525 335.59 16.05C337.14 14.9 338.04 12.975 338.04 10.775C338.04 6.70001 334.965 3.92501 330.465 3.92501C325.215 3.92501 321.315 7.65001 321.315 12.65C321.315 17.45 324.815 20.75 329.89 20.75C331.315 20.75 332.79 20.5 334.04 20.025C334.915 19.7 335.39 19.425 336.315 18.725L337.365 20.2C336.04 21.025 335.415 21.325 334.29 21.675C332.865 22.125 331.29 22.375 329.79 22.375C323.665 22.375 319.49 18.4 319.49 12.6C319.49 6.65001 324.09 2.35001 330.415 2.35001C336.015 2.35001 339.765 5.70001 339.765 10.7C339.765 13.625 338.465 16.125 336.215 17.5C335.29 18.075 334.14 18.425 333.24 18.425C332.065 18.425 331.315 17.775 331.315 16.75C331.315 16.675 331.315 16.6 331.315 16.475C330.815 17.15 330.515 17.4 330.04 17.675C329.415 18 328.665 18.2 327.915 18.2C325.765 18.2 324.39 16.575 324.39 13.95C324.39 12.15 324.99 10.175 325.99 8.75001C327.165 7.07501 328.84 6.12501 330.59 6.12501C331.99 6.12501 332.915 6.70001 333.19 7.77501L333.54 6.52501ZM330.64 7.65001C329.44 7.65001 328.39 8.30001 327.59 9.52501C326.79 10.8 326.24 12.6 326.24 14.025C326.24 15.675 326.89 16.6 328.09 16.6C329.19 16.6 330.39 15.725 331.14 14.4C331.865 13.125 332.365 11.275 332.365 9.82501C332.365 8.37501 331.79 7.65001 330.64 7.65001Z" fill="black"/>
<path d="M301.739 4.95H302.139C302.914 3.2 303.189 2.425 303.264 1.625L305.614 1.975C305.414 2.275 305.414 2.275 305.014 3.25C304.689 4.05 304.414 4.675 304.264 4.925C304.439 4.9 304.439 4.9 305.839 4.825C308.939 4.65 311.264 4.35 312.589 3.95L312.739 5.95C312.264 6 312.264 6 310.814 6.2C309.089 6.425 305.889 6.65 303.439 6.725C302.714 8.075 302.214 8.9 301.414 9.9C301.214 10.2 300.689 10.775 300.614 10.825C300.464 10.925 300.364 11 300.364 11.025C300.339 11.05 300.339 11.05 300.314 11.075C300.339 11.125 300.364 11.15 300.364 11.15C300.514 11.025 300.639 10.95 300.714 10.9C301.164 10.525 301.314 10.425 301.564 10.275C302.614 9.6 303.839 9.25 305.014 9.25C306.889 9.25 308.039 10.175 308.389 11.975C310.339 11.225 311.364 10.85 312.589 10.425C313.864 9.975 313.939 9.95 314.339 9.7L315.239 11.75C313.889 11.975 311.939 12.6 308.614 13.875C308.639 14.7 308.639 14.775 308.639 15.325C308.639 15.6 308.639 16.125 308.614 16.625C308.614 17.1 308.614 17.45 308.614 17.65C308.614 18.075 308.614 18.275 308.664 18.675L306.614 18.7C306.689 18.2 306.764 16.725 306.764 15.375C306.764 14.975 306.764 14.9 306.764 14.6C305.239 15.3 304.414 15.75 303.764 16.25C302.739 17.05 302.289 17.75 302.289 18.6C302.289 20.175 303.714 20.825 307.239 20.825C309.789 20.825 312.539 20.425 314.039 19.825L314.264 22.125C313.864 22.15 313.764 22.15 313.239 22.25C311.339 22.55 309.039 22.725 307.014 22.725C304.689 22.725 303.089 22.425 301.889 21.75C300.814 21.15 300.189 20.05 300.189 18.75C300.189 17.325 301.064 15.975 302.839 14.7C303.764 14.025 304.839 13.45 306.514 12.7C306.364 11.475 305.789 10.925 304.664 10.925C303.139 10.925 301.214 11.85 299.239 13.55C298.239 14.375 297.689 14.975 297.239 15.675L295.589 14.025C297.239 12.775 299.364 10.1 301.064 7.125C301.139 7 301.139 7 301.289 6.725C301.214 6.725 300.939 6.75 300.839 6.75C300.339 6.75 297.864 6.7 297.339 6.675C297.089 6.65 296.964 6.65 296.839 6.65C296.714 6.65 296.564 6.65 296.314 6.7L296.364 4.65C297.439 4.85 299.014 4.95 301.739 4.95Z" fill="black"/>
<path d="M287.703 2.72501H289.778L289.128 6.07501L291.728 3.90001L292.778 5.52501L289.528 6.72501L292.703 7.87501L291.703 9.55001L289.103 7.32501L289.778 10.725H287.703L288.378 7.32501L285.778 9.55001L284.778 7.87501L287.953 6.72501L284.703 5.52501L285.753 3.87501L288.353 6.07501L287.703 2.72501Z" fill="black"/>
<path d="M283.6 24.925L281.725 26.15C280.3 24 279.7 22.85 279.075 21.05C278.3 18.9 277.925 16.625 277.925 14.275C277.925 11.925 278.3 9.67499 279.075 7.49999C279.7 5.7 280.3 4.57499 281.725 2.39999L283.6 3.64999C282.175 5.8 281.6 6.92499 281.05 8.67499C280.5 10.425 280.225 12.3 280.225 14.275C280.225 16.25 280.5 18.15 281.05 19.9C281.6 21.65 282.175 22.775 283.6 24.925Z" fill="black"/>
<path d="M254.399 27.125H251.824C251.949 26.125 251.999 25.3 251.999 24.175V11.25C251.999 9.97501 251.949 9.20001 251.824 8.25001H254.199V9.52501C254.199 9.82501 254.199 9.97501 254.149 10.5C255.349 8.80001 256.999 7.97501 259.224 7.97501C263.199 7.97501 265.599 10.65 265.599 15.075C265.599 19.425 263.124 22.2 259.274 22.2C257.099 22.2 255.424 21.4 254.149 19.775C254.199 20.45 254.224 20.825 254.224 21.5V24.15C254.224 25.425 254.274 26.2 254.399 27.125ZM258.974 20.275C261.649 20.275 263.274 18.325 263.274 15.075C263.274 11.8 261.724 9.92501 258.999 9.92501C256.174 9.92501 254.249 12.05 254.249 15.1C254.249 16.625 254.774 18.075 255.649 18.95C256.449 19.775 257.724 20.275 258.974 20.275Z" fill="black"/>
<path d="M245.564 8.25001H248.214C248.089 9.17501 248.039 9.90001 248.039 11.2V23C248.039 24.725 247.764 25.625 246.989 26.325C246.314 26.925 245.364 27.225 243.989 27.225C242.189 27.225 241.114 26.675 239.914 25.175L241.989 23.925C242.639 24.9 243.214 25.275 244.089 25.275C244.714 25.275 245.189 25.075 245.439 24.7C245.664 24.325 245.739 23.925 245.739 22.825V11.2C245.739 9.87501 245.689 9.17501 245.564 8.25001ZM245.514 2.72501H248.289V5.22501H245.514V2.72501Z" fill="black"/>
<path d="M238.664 19.175H241.489V22H238.664V19.175Z" fill="black"/>
<path d="M225.445 22H222.82C222.97 21 223.02 20.325 223.02 19.05V11.2C223.02 9.975 222.97 9.25 222.82 8.25H225.27V9.725C225.27 10.05 225.27 10.175 225.22 10.8C226.47 8.875 228.045 8 230.27 8C232.095 8 233.52 8.65 234.345 9.85C234.845 10.625 235.095 11.6 235.095 12.925V19.075C235.095 20.375 235.145 21.15 235.27 22H232.645C232.77 20.95 232.82 20.225 232.82 19.05V13.275C232.82 11.075 231.845 9.95 229.945 9.95C228.645 9.95 227.57 10.5 226.545 11.725C225.87 12.525 225.545 13.125 225.27 14.15V19.05C225.27 20.15 225.32 21 225.445 22Z" fill="black"/>
<path d="M217.1 22V20.325C216.15 21.15 215.7 21.45 214.875 21.75C214.025 22.075 213.1 22.225 212.125 22.225C209.325 22.225 207.6 20.75 207.6 18.325C207.6 16.4 208.825 14.9 210.975 14.2C212.475 13.725 213.85 13.55 217.1 13.475V12.175C217.1 10.475 216.125 9.67501 214 9.67501C212.65 9.67501 211.65 10.025 210.975 10.725C210.65 11.075 210.475 11.4 210.25 12.075L207.925 11.625C208.375 10.375 208.75 9.80001 209.475 9.22501C210.575 8.30001 212.1 7.85001 214.025 7.85001C215.925 7.85001 217.3 8.27501 218.2 9.15001C218.95 9.85001 219.275 10.8 219.275 12.175V19.125C219.275 20.35 219.325 20.95 219.475 22H217.1ZM217.1 16.675V15.175C214.25 15.25 212.85 15.425 211.75 15.875C210.5 16.375 209.875 17.175 209.875 18.325C209.875 19.625 210.85 20.45 212.425 20.45C213.8 20.45 215.3 19.825 216.275 18.825C216.875 18.2 217.1 17.6 217.1 16.675Z" fill="black"/>
<path d="M201.824 2.72501H204.599V5.22501H201.824V2.72501ZM201.874 8.25001H204.524C204.399 9.15001 204.349 9.87501 204.349 11.225V19.05C204.349 20.25 204.399 20.95 204.524 22H201.874C201.999 20.9 202.049 20.2 202.049 19.05V11.2C202.049 9.95001 201.999 9.12501 201.874 8.25001Z" fill="black"/>
<path d="M186.285 8.25H189.06C189.16 8.875 189.41 9.725 189.785 10.675L192.535 18C192.685 18.35 192.935 19.125 193.11 19.65C193.285 19.05 193.46 18.55 193.66 18L196.41 10.675C196.86 9.5 197.035 8.95 197.135 8.25H199.91C199.585 8.85 199.41 9.225 198.71 10.975L195.11 19.7C194.56 21.075 194.485 21.275 194.335 22H191.885C191.735 21.375 191.585 20.925 191.085 19.7L187.51 10.975C187.11 10 186.86 9.45 186.285 8.25Z" fill="black"/>
<path d="M181.609 2.72501H184.384V5.22501H181.609V2.72501ZM181.659 8.25001H184.309C184.184 9.15001 184.134 9.87501 184.134 11.225V19.05C184.134 20.25 184.184 20.95 184.309 22H181.659C181.784 20.9 181.834 20.2 181.834 19.05V11.2C181.834 9.95001 181.784 9.12501 181.659 8.25001Z" fill="black"/>
<path d="M166.07 8.25H168.845C168.945 8.875 169.195 9.725 169.57 10.675L172.32 18C172.47 18.35 172.72 19.125 172.895 19.65C173.07 19.05 173.245 18.55 173.445 18L176.195 10.675C176.645 9.5 176.82 8.95 176.92 8.25H179.695C179.37 8.85 179.195 9.225 178.495 10.975L174.895 19.7C174.345 21.075 174.27 21.275 174.12 22H171.67C171.52 21.375 171.37 20.925 170.87 19.7L167.295 10.975C166.895 10 166.645 9.45 166.07 8.25Z" fill="black"/>
<path d="M161.345 19.175H164.17V22H161.345V19.175Z" fill="black"/>
<path d="M148.125 22H145.5C145.65 21 145.7 20.325 145.7 19.05V11.2C145.7 9.975 145.65 9.25 145.5 8.25H147.95V9.725C147.95 10.05 147.95 10.175 147.9 10.8C149.15 8.875 150.725 8 152.95 8C154.775 8 156.2 8.65 157.025 9.85C157.525 10.625 157.775 11.6 157.775 12.925V19.075C157.775 20.375 157.825 21.15 157.95 22H155.325C155.45 20.95 155.5 20.225 155.5 19.05V13.275C155.5 11.075 154.525 9.95 152.625 9.95C151.325 9.95 150.25 10.5 149.225 11.725C148.55 12.525 148.225 13.125 147.95 14.15V19.05C147.95 20.15 148 21 148.125 22Z" fill="black"/>
<path d="M139.431 8.25H142.056C141.906 9.25 141.856 9.925 141.856 11.2V19.05C141.856 20.275 141.906 21 142.056 22H139.606V20.525C139.606 20.2 139.606 20.075 139.656 19.45C138.406 21.35 136.806 22.225 134.606 22.225C132.781 22.225 131.356 21.575 130.531 20.375C130.031 19.625 129.781 18.65 129.781 17.325V11.175C129.781 9.875 129.731 9.1 129.606 8.25H132.231C132.106 9.3 132.056 10.025 132.056 11.2V16.975C132.056 19.175 133.031 20.3 134.931 20.3C136.231 20.3 137.306 19.75 138.331 18.525C139.006 17.725 139.331 17.125 139.606 16.1V11.2C139.606 10.1 139.556 9.25 139.431 8.25Z" fill="black"/>
<path d="M114.763 2.72501H117.338C117.213 3.62501 117.163 4.35001 117.163 5.675V14.475L121.463 10.3C122.513 9.27501 122.938 8.82501 123.288 8.25001H126.763C126.413 8.57501 126.413 8.57501 125.738 9.17501C125.488 9.40001 125.188 9.67501 124.838 10.025C124.588 10.25 124.413 10.425 124.388 10.45L120.888 13.75L125.113 19.3C126.638 21.3 126.738 21.425 127.313 22H124.013C123.713 21.35 123.463 20.95 122.413 19.5L119.288 15.1L117.163 17.1V19.1C117.163 20.275 117.213 21.125 117.338 22H114.763C114.888 21.125 114.938 20.325 114.938 19.05V5.675C114.938 4.35001 114.888 3.65001 114.763 2.72501Z" fill="black"/>
<path d="M109.043 22V20.325C108.093 21.15 107.643 21.45 106.818 21.75C105.968 22.075 105.043 22.225 104.068 22.225C101.268 22.225 99.5432 20.75 99.5432 18.325C99.5432 16.4 100.768 14.9 102.918 14.2C104.418 13.725 105.793 13.55 109.043 13.475V12.175C109.043 10.475 108.068 9.67501 105.943 9.67501C104.593 9.67501 103.593 10.025 102.918 10.725C102.593 11.075 102.418 11.4 102.193 12.075L99.8682 11.625C100.318 10.375 100.693 9.80001 101.418 9.22501C102.518 8.30001 104.043 7.85001 105.968 7.85001C107.868 7.85001 109.243 8.27501 110.143 9.15001C110.893 9.85001 111.218 10.8 111.218 12.175V19.125C111.218 20.35 111.268 20.95 111.418 22H109.043ZM109.043 16.675V15.175C106.193 15.25 104.793 15.425 103.693 15.875C102.443 16.375 101.818 17.175 101.818 18.325C101.818 19.625 102.793 20.45 104.368 20.45C105.743 20.45 107.243 19.825 108.218 18.825C108.818 18.2 109.043 17.6 109.043 16.675Z" fill="black"/>
<path d="M83.5352 24.65L85.4102 23.35C86.4602 24.725 87.7102 25.325 89.4602 25.325C91.5602 25.325 93.0852 24.45 93.7352 22.85C94.0102 22.15 94.1852 21.075 94.2352 19.425C93.8352 20.075 93.5852 20.375 93.1602 20.725C92.1852 21.475 90.8352 21.9 89.3602 21.9C85.4852 21.9 83.0352 19.225 83.0352 15C83.0352 10.75 85.5352 8.02499 89.4852 8.02499C91.5852 8.02499 93.1852 8.82499 94.2352 10.375C94.1852 9.97499 94.1852 9.79999 94.1852 9.52499V8.24999H96.5352C96.4102 9.27499 96.3602 9.92499 96.3602 11.15V19.925C96.3602 22.575 95.8852 24.175 94.7602 25.35C93.6852 26.5 91.7102 27.175 89.4102 27.175C86.8352 27.175 85.1852 26.475 83.5352 24.65ZM85.3602 15.05C85.3602 18.125 86.9602 20.05 89.5352 20.05C92.2602 20.05 94.1352 17.95 94.1352 14.85C94.1352 11.875 92.3602 9.89999 89.6852 9.89999C87.0102 9.89999 85.3602 11.875 85.3602 15.05Z" fill="black"/>
<path d="M80.8461 15.55H70.2211C70.3211 17.175 70.5711 18 71.2211 18.875C71.9961 19.925 73.1711 20.475 74.6211 20.475C75.9461 20.475 77.0461 20 77.8211 19.1C78.1961 18.7 78.3711 18.375 78.6211 17.65L80.7211 18.425C80.2461 19.475 79.9211 19.975 79.3211 20.55C78.1211 21.75 76.5211 22.375 74.5961 22.375C70.5461 22.375 67.9711 19.575 67.9711 15.125C67.9711 10.75 70.5211 7.89999 74.4211 7.89999C77.7961 7.89999 80.1711 10.025 80.6711 13.525C80.7211 13.775 80.7711 14.3 80.8461 15.55ZM70.2961 13.725H78.4961C78.3461 12.425 77.9711 11.575 77.2461 10.85C76.4961 10.125 75.5461 9.77499 74.3711 9.77499C72.8961 9.77499 71.6711 10.5 70.9211 11.825C70.5711 12.425 70.4461 12.825 70.2961 13.725Z" fill="black"/>
<path d="M60.0643 4.5H62.6893C62.5893 5.3 62.5143 6.275 62.5143 7.35V8.25H63.6643C64.8393 8.25 65.3893 8.225 66.2143 8.1V10.3C65.4143 10.175 64.8393 10.15 63.6893 10.15H62.5143V18.55C62.5143 19.275 62.6143 19.625 62.8643 19.875C63.1143 20.1 63.5393 20.25 64.0643 20.25C64.7393 20.25 65.2393 20.1 66.0143 19.65L66.5643 21.675C65.5143 22.1 64.7143 22.25 63.6643 22.25C62.4643 22.25 61.5643 21.975 61.0143 21.475C60.4643 20.95 60.2393 20.2 60.2393 18.925V10.15H59.2393C58.3643 10.15 57.8143 10.2 57.0143 10.3V8.1C57.7143 8.225 58.2143 8.25 59.2643 8.25H60.2393V7.35C60.2393 6.35 60.1643 5.35 60.0643 4.5Z" fill="black"/>
<path d="M51.2532 2.72501H53.3282L52.6782 6.07501L55.2782 3.90001L56.3282 5.52501L53.0782 6.72501L56.2532 7.87501L55.2532 9.55001L52.6532 7.32501L53.3282 10.725H51.2532L51.9282 7.32501L49.3282 9.55001L48.3282 7.87501L51.5032 6.72501L48.2532 5.52501L49.3032 3.87501L51.9032 6.07501L51.2532 2.72501Z" fill="black"/>
<path d="M39.9107 22.35C35.6607 22.35 32.9857 19.55 32.9857 15.125C32.9857 10.725 35.6607 7.89999 39.8607 7.89999C44.0607 7.89999 46.7357 10.7 46.7357 15.1C46.7357 19.5 44.0357 22.35 39.9107 22.35ZM39.9107 9.77499C37.0607 9.77499 35.2857 11.8 35.2857 15.1C35.2857 18.4 37.0357 20.45 39.8607 20.45C42.7107 20.45 44.4357 18.45 44.4357 15.15C44.4357 11.825 42.7107 9.77499 39.9107 9.77499Z" fill="black"/>
<path d="M24.6459 10.15H23.6209C22.7459 10.15 22.0959 10.2 21.3209 10.3V8.10001C21.9959 8.20001 22.6709 8.25001 23.6209 8.25001H24.6459V6.82501C24.6459 5.27501 24.8959 4.40001 25.5459 3.67501C26.1959 2.90001 27.3959 2.47501 28.8959 2.47501C29.8709 2.47501 30.6959 2.62501 31.6459 2.97501L31.0709 4.90001C30.3959 4.52501 29.7459 4.35001 29.0459 4.35001C28.3959 4.35001 27.9209 4.45001 27.5709 4.70001C27.0709 5.07501 26.9209 5.60001 26.9209 6.97501V8.25001H28.1459C29.1709 8.25001 29.8959 8.20001 30.8459 8.10001V10.3C29.9959 10.2 29.3709 10.15 28.1459 10.15H26.9209V19.05C26.9209 20.325 26.9709 21.125 27.0959 22H24.4709C24.5959 21.075 24.6459 20.175 24.6459 19.05V10.15Z" fill="black"/>
<path d="M9.55115 22H6.92615C7.07615 21 7.12615 20.325 7.12615 19.05V11.2C7.12615 9.975 7.07615 9.25 6.92615 8.25H9.37615V9.725C9.37615 10.05 9.37615 10.175 9.32615 10.8C10.5761 8.875 12.1511 8 14.3761 8C16.2011 8 17.6261 8.65 18.4511 9.85C18.9511 10.625 19.2011 11.6 19.2011 12.925V19.075C19.2011 20.375 19.2511 21.15 19.3761 22H16.7511C16.8761 20.95 16.9261 20.225 16.9261 19.05V13.275C16.9261 11.075 15.9511 9.95 14.0511 9.95C12.7511 9.95 11.6761 10.5 10.6511 11.725C9.97615 12.525 9.65115 13.125 9.37615 14.15V19.05C9.37615 20.15 9.42615 21 9.55115 22Z" fill="black"/>
<path d="M0.724976 2.72501H3.49998V5.22501H0.724976V2.72501ZM0.774976 8.25001H3.42498C3.29998 9.15001 3.24998 9.87501 3.24998 11.225V19.05C3.24998 20.25 3.29998 20.95 3.42498 22H0.774976C0.899976 20.9 0.949975 20.2 0.949975 19.05V11.2C0.949975 9.95001 0.899976 9.12501 0.774976 8.25001Z" fill="black"/>
</svg>
